<svg width="217" height="62" viewBox="0 0 217 62" fill="none" xmlns="http://www.w3.org/2000/svg">
<path fill-rule="evenodd" clip-rule="evenodd" d="M19.9406 30.6524C20.6306 30.9894 21.2646 31.1914 21.8366 31.3134C22.4076 31.4254 23.0086 31.3694 23.6366 31.1674C24.2636 30.9894 24.8526 30.6064 25.4076 30.0464C26.3166 29.1384 26.8376 28.1294 26.9616 27.0064C27.0816 25.8964 26.7806 24.9664 26.0576 24.2484C25.4076 23.6084 24.6626 23.1724 23.8326 22.9364C22.9906 22.7124 21.8476 22.5784 20.3946 22.5784C18.4436 22.5554 17.1376 22.5224 16.4586 22.4544C15.7796 22.4094 14.9556 22.2864 13.9696 22.0844C12.9876 21.8824 12.3096 21.6914 11.9446 21.5454C11.6076 21.4454 11.3846 21.4004 11.2546 21.4344C11.1266 21.4554 11.0086 21.5234 10.9126 21.6244C10.8066 21.7374 10.7396 21.8484 10.7246 21.9834C10.7056 22.1184 10.7566 22.3314 10.8686 22.6234C11.0006 23.0144 11.1686 23.6764 11.3726 24.6754C11.5856 25.6394 11.7156 26.4814 11.7706 27.1644C11.8216 27.8374 11.8556 29.1494 11.8746 31.1004C11.8896 32.4794 12.0066 33.6124 12.2196 34.4644C12.4356 35.3164 12.8656 36.0464 13.4986 36.6844C14.2746 37.4694 15.2246 37.7954 16.3426 37.6504C17.4536 37.5044 18.4616 37.0004 19.3526 36.1134C19.9026 35.5644 20.2776 34.9694 20.4726 34.3534C20.6756 33.7244 20.7206 33.1304 20.6196 32.5584C20.5126 31.9864 20.2946 31.3364 19.9406 30.6524Z" fill="black"/>
<path fill-rule="evenodd" clip-rule="evenodd" d="M48.3406 21.6353C48.2006 21.6693 47.9606 21.7363 47.6006 21.8603C47.0846 22.0283 46.5176 22.1623 45.9126 22.2423C45.3026 22.3193 44.4096 22.3433 43.2376 22.3083C41.1746 22.2423 39.7286 22.2423 38.8756 22.3193C38.0246 22.3863 37.2156 22.5673 36.4536 22.8593C35.6796 23.1503 35.0416 23.5533 34.5356 24.0583C34.0566 24.5393 33.6906 25.1343 33.4246 25.8303C33.1616 26.5243 33.1336 27.2203 33.3476 27.8823C33.5426 28.5443 33.8496 29.0603 34.2556 29.4743C34.5976 29.8213 35.0186 30.0803 35.5346 30.2813C36.0446 30.4733 36.5246 30.5633 36.9696 30.5633C37.4136 30.5513 38.0176 30.4733 38.7866 30.3493C37.7496 31.2583 36.8196 31.9543 35.9766 32.4793L38.4046 34.9143C38.9316 34.0613 39.6386 33.1413 40.5356 32.0983C40.4076 32.8953 40.3336 33.5123 40.3236 33.9383C40.3236 34.3863 40.4186 34.8583 40.6086 35.3743C40.8016 35.8783 41.0696 36.2933 41.4156 36.6403C41.8246 37.0433 42.3596 37.3363 43.0146 37.5483C43.6816 37.7503 44.3556 37.7173 45.0626 37.4593C45.7606 37.2013 46.3506 36.8313 46.8326 36.3493C47.3286 35.8563 47.7306 35.2173 48.0426 34.4203C48.3616 33.6243 48.5326 32.7273 48.5876 31.7403C48.6376 30.7423 48.6376 29.3853 48.5876 27.6473C48.5596 26.4803 48.5826 25.5833 48.6546 24.9663C48.7336 24.3713 48.8576 23.8003 49.0306 23.2843C49.1546 22.9363 49.2266 22.6903 49.2596 22.5553C49.2936 22.4103 49.5076 22.0283 49.4616 21.8373L49.0586 21.4333C48.8626 21.3773 48.4756 21.6023 48.3406 21.6353Z" fill="black"/>
<path fill-rule="evenodd" clip-rule="evenodd" d="M30.096 13.6505L35.233 19.9985L30.096 26.3455L24.959 19.9985L30.096 13.6505Z" fill="black"/>
<path fill-rule="evenodd" clip-rule="evenodd" d="M26.4 36.7188C26.076 36.1688 25.843 35.7098 25.706 35.3168C25.553 34.9368 25.48 34.5098 25.48 34.0498C25.48 32.8838 25.938 31.8958 26.842 31.1008C27.747 30.2828 28.828 29.8788 30.088 29.8788C31.358 29.8788 32.439 30.2828 33.348 31.1008C34.254 31.8958 34.711 32.8838 34.711 34.0498C34.711 34.5098 34.638 34.9368 34.498 35.3168C34.354 35.7098 34.117 36.1688 33.774 36.7188C34.532 36.5068 35.153 36.3938 35.646 36.3938C36.846 36.3938 37.919 36.8088 38.844 37.6168C39.762 38.4348 40.231 39.5218 40.231 40.8798C40.231 42.1928 39.78 43.2908 38.882 44.1318C37.985 44.9958 36.942 45.3998 35.754 45.3998C35.058 45.3998 34.346 45.2078 33.624 44.8498C32.899 44.4568 32.148 43.7398 31.37 42.6738C31.548 44.3898 32.837 51.9378 32.837 51.9378H27.348C27.348 51.9378 28.638 44.3898 28.814 42.6738C28.033 43.7508 27.275 44.4678 26.542 44.8498C25.812 45.2078 25.105 45.3998 24.427 45.3998C23.245 45.3998 22.202 44.9958 21.31 44.1318C20.408 43.2908 19.959 42.1928 19.959 40.8798C19.959 39.5218 20.423 38.4348 21.348 37.6168C22.268 36.8088 23.341 36.3938 24.561 36.3938C25.048 36.3938 25.661 36.5068 26.4 36.7188Z" fill="black"/>
<path fill-rule="evenodd" clip-rule="evenodd" d="M30.152 1.59534C13.527 1.59534 0 15.1193 0 31.7403C0 48.3703 13.527 61.9073 30.152 61.9073C46.784 61.9073 60.31 48.3703 60.31 31.7403C60.31 15.1193 46.784 1.59534 30.152 1.59534ZM30.152 56.9393C16.264 56.9393 4.965 45.6353 4.965 31.7403C4.965 17.8673 16.264 6.56334 30.152 6.56334C44.044 6.56334 55.339 17.8673 55.339 31.7403C55.339 45.6353 44.044 56.9393 30.152 56.9393Z" fill="black"/>
<path fill-rule="evenodd" clip-rule="evenodd" d="M140.242 57.4322C125.296 57.4322 113.834 46.2632 113.834 31.7622C113.834 17.2622 125.45 5.86719 140.242 5.86719C155.036 5.86719 166.572 17.1832 166.572 31.5932C166.572 46.1162 154.963 57.4322 140.242 57.4322ZM140.242 48.6292C149.264 48.6292 156.659 41.0142 156.659 31.5932C156.659 22.2862 149.339 14.6712 140.242 14.6712C131.134 14.6712 123.74 22.2862 123.74 31.5932C123.74 41.0142 131.134 48.6292 140.242 48.6292Z" fill="black"/>
<path fill-rule="evenodd" clip-rule="evenodd" d="M78.532 52.6545C76.547 50.4465 75.8 48.5395 75.498 44.6365H85.121C85.776 47.1715 87.161 48.3935 89.107 48.3935C91.893 48.3935 93.471 46.4085 93.471 42.7645V6.97949H103.086V42.1695C103.086 51.6345 97.798 57.4885 89.107 57.4885C85.252 57.4885 81.18 55.6725 78.532 52.6545Z" fill="black"/>
<path fill-rule="evenodd" clip-rule="evenodd" d="M170.24 56.4678L180.533 56.4558L183.881 48.1688H202.965L206.311 56.4558L216.618 56.4678L193.425 3.36877L170.24 56.4678ZM193.473 24.6078L199.857 40.5218H187L193.473 24.6078Z" fill="black"/>
</svg>
